<svg width="672.000000" height="408.000000" viewBox="0 0 672 408" fill="none" xmlns="http://www.w3.org/2000/svg" xmlns:xlink="http://www.w3.org/1999/xlink">
	<desc>
			Created with Pixso.
	</desc>
	<defs/>
	<rect id="Background" width="672.000000" height="408.000000" fill="#C6EAF2" fill-opacity="1.000000"/>
	<mask id="mask1_10044" mask-type="alpha" maskUnits="userSpaceOnUse" x="0.000000" y="0.000000" width="672.000000" height="408.000000">
		<rect id="Background" width="672.000000" height="408.000000" fill="#C4C4C4" fill-opacity="1.000000"/>
	</mask>
	<g mask="url(#mask1_10044)">
		<path id="Pattern" d="M380.99 -152.19C376.72 -146.18 368.29 -144.97 362.5 -149.53C355.54 -155.03 345.23 -152.01 342.34 -143.61C339.94 -136.64 332.19 -133.1 325.35 -135.86C317.12 -139.17 308.08 -133.36 307.68 -124.5C307.34 -117.13 300.9 -111.55 293.56 -112.27C284.73 -113.13 277.69 -105.01 279.8 -96.39C281.55 -89.22 276.95 -82.06 269.7 -80.67C260.99 -79.01 256.52 -69.24 260.98 -61.56C264.68 -55.18 262.27 -47.01 255.71 -43.64C247.82 -39.59 246.29 -28.95 252.72 -22.84C258.07 -17.77 258.07 -9.24 252.72 -4.17C246.29 1.95 247.82 12.58 255.71 16.63C262.27 20 264.68 28.17 260.98 34.55C256.52 42.23 260.99 52 269.7 53.66C276.95 55.05 281.55 62.21 279.8 69.38C277.69 78 284.73 86.12 293.56 85.26C300.9 84.54 307.34 90.12 307.68 97.49C308.08 106.35 317.12 112.16 325.35 108.85C332.19 106.09 339.94 109.63 342.34 116.61C345.23 125 355.54 128.02 362.5 122.53C368.29 117.96 376.72 119.17 380.99 125.18C386.12 132.42 396.87 132.42 402 125.18C406.27 119.17 414.7 117.96 420.49 122.53C427.45 128.02 437.76 125 440.65 116.61C443.05 109.63 450.8 106.09 457.64 108.85C465.87 112.16 474.91 106.35 475.31 97.49C475.65 90.12 482.09 84.54 489.43 85.26C498.26 86.12 505.3 78 503.19 69.38C501.44 62.21 506.04 55.05 513.29 53.66C522 52 526.47 42.23 522.02 34.55C518.32 28.17 520.72 20 527.28 16.63C535.17 12.58 536.7 1.94 530.27 -4.17C524.92 -9.24 524.92 -17.77 530.27 -22.84C536.7 -28.96 535.17 -39.59 527.28 -43.64C520.72 -47.01 518.32 -55.18 522.02 -61.56C526.47 -69.24 522 -79.01 513.29 -80.67C506.04 -82.06 501.44 -89.22 503.19 -96.39C505.3 -105.01 498.26 -113.13 489.43 -112.27C482.09 -111.55 475.65 -117.13 475.31 -124.5C474.91 -133.36 465.87 -139.17 457.64 -135.86C450.8 -133.1 443.05 -136.64 440.65 -143.61C437.76 -152.01 427.45 -155.03 420.49 -149.53C414.7 -144.97 406.27 -146.18 402 -152.19C396.87 -159.43 386.12 -159.43 380.99 -152.19Z" fill="#B3E1EB" fill-opacity="1.000000" fill-rule="evenodd"/>
	</g>
</svg>
