<svg width="32.003906" height="30.022949" viewBox="0 0 32.0039 30.0229" fill="none" xmlns="http://www.w3.org/2000/svg" xmlns:xlink="http://www.w3.org/1999/xlink">
	<desc>
			Created with Pixso.
	</desc>
	<defs/>
	<path d="M15 8.01L15 15.01" stroke="#E1B168" stroke-opacity="1.000000" stroke-width="2.000000" stroke-linejoin="round" stroke-linecap="round"/>
	<path d="M23 19.01L15 15.01" stroke="#E1B168" stroke-opacity="1.000000" stroke-width="2.000000" stroke-linejoin="round" stroke-linecap="round"/>
	<path d="M24 11.01L31 11.01L31 5.01" stroke="#E1B168" stroke-opacity="1.000000" stroke-width="2.000000" stroke-linejoin="round" stroke-linecap="round"/>
	<path d="M25.46 24.9C23.46 26.86 20.9 28.2 18.12 28.74C15.34 29.28 12.46 29 9.84 27.94C7.22 26.88 4.99 25.09 3.41 22.79C1.84 20.48 1 17.78 1 15.01C1 12.24 1.84 9.53 3.41 7.23C4.99 4.92 7.22 3.13 9.84 2.07C12.46 1.01 15.34 0.74 18.12 1.28C20.9 1.82 23.46 3.15 25.46 5.11L31 10.5" stroke="#E1B168" stroke-opacity="1.000000" stroke-width="2.000000" stroke-linejoin="round" stroke-linecap="round"/>
</svg>
