<svg width="30.007324" height="29.000000" viewBox="0 0 30.0073 29" fill="none" xmlns="http://www.w3.org/2000/svg" xmlns:xlink="http://www.w3.org/1999/xlink">
	<desc>
			Created with Pixso.
	</desc>
	<defs/>
	<path d="M1.02 6.08C1.07 5.81 1.23 5.57 1.46 5.41C5.4 2.54 10.14 1 15 1C19.86 1 24.59 2.54 28.54 5.41C28.77 5.57 28.92 5.81 28.98 6.08C29.03 6.35 28.98 6.63 28.83 6.86L15.89 27.5C15.79 27.65 15.66 27.77 15.51 27.86C15.35 27.95 15.18 28 15 28C14.82 28 14.65 27.95 14.49 27.86C14.34 27.77 14.21 27.65 14.11 27.5L1.16 6.86C1.02 6.63 0.97 6.35 1.02 6.08Z" stroke="#E1B168" stroke-opacity="1.000000" stroke-width="2.000000" stroke-linejoin="round"/>
	<path d="M4 10C7.1 7.41 10.99 6 15 6C19.01 6 22.9 7.41 26 10" stroke="#E1B168" stroke-opacity="1.000000" stroke-width="2.000000" stroke-linejoin="round" stroke-linecap="round"/>
	<path d="M19.34 20.25C18.74 20.13 18.17 19.89 17.69 19.55C17.21 19.2 16.83 18.76 16.57 18.26C16.32 17.76 16.2 17.2 16.23 16.65C16.25 16.09 16.43 15.55 16.73 15.06C17.03 14.57 17.45 14.15 17.97 13.83C18.48 13.51 19.07 13.3 19.68 13.22C20.3 13.14 20.92 13.19 21.51 13.36C22.1 13.53 22.63 13.83 23.06 14.22" stroke="#E1B168" stroke-opacity="1.000000" stroke-width="2.000000" stroke-linejoin="round" stroke-linecap="round"/>
	<path d="M6 14.22C6.24 13.63 6.64 13.11 7.16 12.72C7.69 12.33 8.31 12.09 8.96 12.02C9.62 11.95 10.28 12.05 10.88 12.31C11.48 12.58 12 12.99 12.37 13.52C12.74 14.05 12.96 14.66 12.99 15.3C13.03 15.93 12.89 16.56 12.58 17.13C12.27 17.69 11.81 18.16 11.25 18.49C10.68 18.82 10.04 18.99 9.38 19L9.14 19" stroke="#E1B168" stroke-opacity="1.000000" stroke-width="2.000000" stroke-linejoin="round" stroke-linecap="round"/>
</svg>
