<svg width="46.000000" height="34.000000" viewBox="0 0 46 34" fill="none" xmlns="http://www.w3.org/2000/svg" xmlns:xlink="http://www.w3.org/1999/xlink">
	<desc>
			Created with Pixso.
	</desc>
	<defs/>
	<path d="M7.36 31.79C9.67 30.79 11.7 29.28 13.42 27.25C15.15 25.23 16.19 23.16 16.55 21.05C16.74 19.94 16.84 18.98 16.84 18.19C16.84 17.27 16.74 16.52 16.55 15.92C14.7 17.87 12.36 18.84 9.54 18.84C6.71 18.84 4.41 18.01 2.65 16.34C0.88 14.67 0 12.36 0 9.42C0 6.64 0.94 4.37 2.82 2.62C4.67 0.87 7.02 0 9.89 0C13.82 0 16.68 1.43 18.49 4.29C19.31 5.52 19.96 7.03 20.43 8.82C20.9 10.65 21.14 12.52 21.14 14.43C21.14 18.61 20.08 22.42 17.96 25.88C15.84 29.34 12.68 32.05 8.48 34L7.36 31.79ZM32.21 31.79C34.53 30.79 36.55 29.28 38.28 27.25C40.01 25.23 41.05 23.16 41.4 21.05C41.6 19.94 41.7 18.98 41.7 18.19C41.7 17.27 41.6 16.52 41.4 15.92C39.56 17.87 37.22 18.84 34.39 18.84C31.57 18.84 29.27 18.01 27.5 16.34C25.73 14.67 24.85 12.36 24.85 9.42C24.85 6.64 25.79 4.37 27.68 2.62C29.52 0.87 31.88 0 34.75 0C38.67 0 41.54 1.43 43.34 4.29C44.17 5.52 44.82 7.03 45.29 8.82C45.76 10.65 46 12.52 46 14.43C46 18.61 44.93 22.42 42.82 25.88C40.69 29.34 37.53 32.05 33.33 34L32.21 31.79Z" fill="#E1B168" fill-opacity="1.000000" fill-rule="nonzero"/>
</svg>
