<svg width="18.000000" height="16.532715" viewBox="0 0 18 16.5327" fill="none" xmlns="http://www.w3.org/2000/svg" xmlns:xlink="http://www.w3.org/1999/xlink">
	<desc>
			Created with Pixso.
	</desc>
	<defs/>
	<path id="Vector" d="M14.17 16.53C14.04 16.53 13.92 16.49 13.82 16.42L9 12.98L4.17 16.42C4.07 16.49 3.94 16.53 3.82 16.53C3.69 16.53 3.57 16.49 3.46 16.41C3.36 16.34 3.28 16.23 3.25 16.11C3.21 16 3.21 15.87 3.25 15.75L5.13 10.27L0.26 6.98C0.15 6.91 0.07 6.8 0.03 6.68C-0.01 6.57 -0.02 6.44 0.02 6.32C0.06 6.2 0.14 6.09 0.24 6.02C0.34 5.94 0.47 5.9 0.59 5.9L6.61 5.9L8.42 0.4C8.46 0.28 8.54 0.18 8.64 0.11C8.74 0.03 8.87 0 9 0C9.12 0 9.25 0.03 9.35 0.11C9.45 0.18 9.53 0.28 9.57 0.4L11.38 5.9L17.4 5.9C17.52 5.9 17.65 5.94 17.75 6.02C17.85 6.09 17.93 6.2 17.97 6.32C18.01 6.44 18 6.57 17.96 6.69C17.92 6.8 17.84 6.91 17.73 6.98L12.86 10.27L14.74 15.75C14.77 15.84 14.78 15.93 14.76 16.02C14.75 16.12 14.71 16.2 14.66 16.28C14.6 16.36 14.53 16.42 14.44 16.46C14.36 16.5 14.26 16.53 14.17 16.53Z" fill="#E1B168" fill-opacity="1.000000" fill-rule="nonzero"/>
</svg>
