<svg width="37.565430" height="36.000244" viewBox="0 0 37.5654 36.0002" fill="none" xmlns="http://www.w3.org/2000/svg" xmlns:xlink="http://www.w3.org/1999/xlink">
	<desc>
			Created with Pixso.
	</desc>
	<defs/>
	<path d="M25.82 10.95L32.07 10.95C32.31 10.95 32.54 11.02 32.73 11.16C32.92 11.3 33.07 11.5 33.16 11.73L35.21 17.21" stroke="#E1B168" stroke-opacity="1.000000" stroke-width="2.000000" stroke-linejoin="round" stroke-linecap="round"/>
	<path d="M2.34 20.34L25.82 20.34" stroke="#E1B168" stroke-opacity="1.000000" stroke-width="2.000000" stroke-linejoin="round" stroke-linecap="round"/>
	<path d="M27.78 30.52C25.83 30.52 24.26 28.94 24.26 27C24.26 25.05 25.83 23.47 27.78 23.47C29.72 23.47 31.3 25.05 31.3 27C31.3 28.94 29.72 30.52 27.78 30.52Z" stroke="#E1B168" stroke-opacity="1.000000" stroke-width="2.000000" stroke-linejoin="round"/>
	<path d="M9.78 30.52C7.83 30.52 6.26 28.94 6.26 27C6.26 25.05 7.83 23.47 9.78 23.47C11.72 23.47 13.3 25.05 13.3 27C13.3 28.94 11.72 30.52 9.78 30.52Z" stroke="#E1B168" stroke-opacity="1.000000" stroke-width="2.000000" stroke-linejoin="round"/>
	<path d="M24.26 26.6L13.3 26.6" stroke="#E1B168" stroke-opacity="1.000000" stroke-width="2.000000" stroke-linejoin="round" stroke-linecap="round"/>
	<path d="M5.87 26.6L3.52 26.6C3.21 26.6 2.91 26.49 2.69 26.27C2.47 26.06 2.34 25.78 2.34 25.48L2.34 9.73C2.34 9.43 2.47 9.14 2.69 8.93C2.91 8.72 3.21 8.6 3.52 8.6L25.82 8.6L25.82 23.68" stroke="#E1B168" stroke-opacity="1.000000" stroke-width="2.000000" stroke-linejoin="round" stroke-linecap="round"/>
	<path d="M25.82 17.21L35.21 17.21L35.21 25.56C35.21 25.84 35.09 26.1 34.87 26.3C34.65 26.49 34.35 26.6 34.04 26.6L32.08 26.6" stroke="#E1B168" stroke-opacity="1.000000" stroke-width="2.000000" stroke-linejoin="round" stroke-linecap="round"/>
</svg>
