<svg width="37.000000" height="31.000000" viewBox="0 0 37 31" fill="none" xmlns="http://www.w3.org/2000/svg" xmlns:xlink="http://www.w3.org/1999/xlink">
	<desc>
			Created with Pixso.
	</desc>
	<defs/>
	<path d="M32.25 5.83C34.32 5.83 36 7.45 36 9.45L36 26.37C36 28.37 34.32 30 32.25 30L4.75 30C2.67 30 1 28.37 1 26.37L1 9.45C1 7.45 2.67 5.83 4.75 5.83L32.25 5.83ZM9.75 3.41C9.75 2.77 10.01 2.16 10.48 1.7C10.95 1.25 11.58 1 12.25 1L24.75 1C25.41 1 26.04 1.25 26.51 1.7C26.98 2.16 27.25 2.77 27.25 3.41L27.25 5.83L9.75 5.83L9.75 3.41ZM36 14.29L1 14.29M23.5 14.29L23.5 16.1C23.5 16.26 23.43 16.41 23.31 16.53C23.2 16.64 23.04 16.7 22.87 16.7L14.12 16.7C13.95 16.7 13.79 16.64 13.68 16.53C13.56 16.41 13.5 16.26 13.5 16.1L13.5 14.29" stroke="#FFFFFF" stroke-opacity="1.000000" stroke-width="2.000000" stroke-linejoin="round" stroke-linecap="round"/>
</svg>
