<svg width="26.550781" height="26.496338" viewBox="0 0 26.5508 26.4963" fill="none" xmlns="http://www.w3.org/2000/svg" xmlns:xlink="http://www.w3.org/1999/xlink">
	<desc>
			Created with Pixso.
	</desc>
	<defs/>
	<path d="M20.5 17.3C19.07 16.58 18.95 16.52 17.82 17.36C17.07 17.92 16.58 18.42 15.7 18.23C14.82 18.04 12.91 16.99 11.24 15.32C9.57 13.66 8.45 11.69 8.27 10.82C8.08 9.94 8.58 9.45 9.14 8.7C9.91 7.64 9.86 7.46 9.19 6.03C8.67 4.92 7.26 2.67 6.31 1.74C5.3 0.74 5.3 0.92 4.65 1.19C4.12 1.42 3.61 1.69 3.13 2C2.19 2.63 1.66 3.15 1.3 3.93C0.93 4.71 0.77 6.54 2.66 9.97C4.54 13.4 5.87 15.16 8.61 17.89C11.35 20.63 13.46 22.1 16.54 23.83C20.36 25.96 21.82 25.55 22.6 25.18C23.39 24.81 23.91 24.3 24.54 23.35C24.85 22.87 25.12 22.37 25.35 21.84C25.62 21.19 25.8 21.19 24.8 20.18C23.86 19.23 21.6 17.86 20.5 17.3Z" stroke="#E1B168" stroke-opacity="1.000000" stroke-width="2.100000"/>
</svg>
